# xmcd CD database file
#
# Track frame offsets:
#	150
#	15791
#	32280
#	49126
#	69594
#	91342
#	112905
#	132390
#	153689
#	171046
#	185306
#	204078
#
# Disc length: 3012 seconds
#
# Revision: 0
# Processed by: cddbd v1.5.1PL0 Copyright (c) Steve Scherf et al.
# Submitted via: CDex 1.51
#
DISCID=8b0bc20c
DTITLE=Los Fatales - Revolucion Fatal
DYEAR=2000
DGENRE=Country
TTITLE0=La Noche Del Terror
TTITLE1=Comadre Compadre
TTITLE2=Voy a Conquistarte
TTITLE3=Eres mi Cancion
TTITLE4=Apagon
TTITLE5=Las Fatalidades
TTITLE6=Mi Nena
TTITLE7=El Poroto
TTITLE8=Que Pasa, Que Pasa
TTITLE9=Ya no puedo estar sin ti
TTITLE10=Pizza Musarela
TTITLE11=Mayoneza
EXTD=YEAR: 2000
EXTT0=
EXTT1=
EXTT2=
EXTT3=
EXTT4=
EXTT5=
EXTT6=
EXTT7=
EXTT8=
EXTT9=
EXTT10=
EXTT11=
PLAYORDER=
